<svg width="30" height="31" viewBox="0 0 30 31" fill="none" xmlns="http://www.w3.org/2000/svg">
<path d="M15 1.1001C7.04701 1.1001 0.600006 7.5471 0.600006 15.5001C0.600006 23.4531 7.04701 29.9001 15 29.9001C22.953 29.9001 29.4 23.4531 29.4 15.5001C29.4 7.5471 22.953 1.1001 15 1.1001ZM11.475 21.4686H8.55901V12.0846H11.475V21.4686ZM9.99901 10.9326C9.07801 10.9326 8.48251 10.2801 8.48251 9.4731C8.48251 8.6496 9.09601 8.0166 10.0365 8.0166C10.977 8.0166 11.553 8.6496 11.571 9.4731C11.571 10.2801 10.977 10.9326 9.99901 10.9326ZM22.125 21.4686H19.209V16.2681C19.209 15.0576 18.786 14.2356 17.7315 14.2356C16.926 14.2356 16.4475 14.7921 16.236 15.3276C16.158 15.5181 16.1385 15.7881 16.1385 16.0566V21.4671H13.221V15.0771C13.221 13.9056 13.1835 12.9261 13.1445 12.0831H15.678L15.8115 13.3866H15.87C16.254 12.7746 17.1945 11.8716 18.768 11.8716C20.6865 11.8716 22.125 13.1571 22.125 15.9201V21.4686Z" fill="#666666"/>
</svg>
